<svg xmlns="http://www.w3.org/2000/svg" version="1.1" xmlns:xlink="http://www.w3.org/1999/xlink" xmlns:svgjs="http://svgjs.dev/svgjs" width="2000" height="1500" viewBox="0 0 2000 1500"><rect width="2000" height="1500" fill="#ed2647"></rect><g transform="matrix(0.75,0,0,0.75,249.090909090909,293.9195169249334)"><svg viewBox="0 0 396 241" data-background-color="#ed2647" preserveAspectRatio="xMidYMid meet" height="1217" width="2000" xmlns="http://www.w3.org/2000/svg" xmlns:xlink="http://www.w3.org/1999/xlink"><g id="tight-bounds" transform="matrix(1,0,0,1,0.2400000000000091,-0.07776343895804416)"><svg viewBox="0 0 395.52 241.1555268779161" height="241.1555268779161" width="395.52"><g><svg viewBox="0 0 395.52 241.1555268779161" height="241.1555268779161" width="395.52"><g transform="matrix(1,0,0,1,0,123.93985141986262)"><svg viewBox="0 0 395.52 117.21567545805345" height="117.21567545805345" width="395.52"><g id="textblocktransform"><svg viewBox="0 0 395.52 117.21567545805345" height="117.21567545805345" width="395.52" id="textblock"><g><svg viewBox="0 0 395.52 117.21567545805345" height="117.21567545805345" width="395.52"><g transform="matrix(1,0,0,1,0,0)"><svg width="395.52" viewBox="-14.60948 -19.22551 147.05148 43.57993" height="117.21567545805345" data-palette-color="#ff908b"><path d="M19.343-14.044l12.961 2.983c4.19 0.964 7.003 2.388 8.437 4.271 1.426 1.888 1.758 4.489 0.995 7.802v0c-0.389 1.689-1.032 3.593-1.93 5.712v0c-2.231 5.233-4.791 8.748-7.681 10.546-2.897 1.796-6.96 2.092-12.19 0.889v0l-12.961-2.983zM29.243-3.557v0l-3.85-0.886-6.002 14.267 3.849 0.886c1.267 0.292 2.244 0.356 2.931 0.193 0.689-0.17 1.258-0.784 1.708-1.844v0l3.937-9.304c0.077-0.187 0.153-0.444 0.228-0.769v0c0.172-0.747 0.024-1.294-0.443-1.641-0.467-0.347-1.253-0.648-2.358-0.902zM6.44 12.59l-0.894 2.103-20.155-6.947zM10.261 3.567l-0.894 2.103-20.155-6.947zM12.166-0.92l-0.894 2.103-20.155-6.947zM14.071-5.407l-0.894 2.103-20.155-6.947zM15.927-9.905l-0.845 2.114-20.156-6.947zM8.356 8.054l-0.894 2.103-20.155-6.947zM17.832-14.392l-0.894 2.103-20.107-6.937zM70.482 11.118v0l0.006-0.951-0.4 0.018-1.709 13.696-9.489 0.446 4.026-31.474 9.49-0.446-1.649 12.842 0.4-0.019c0.216-1.078 0.478-1.891 0.786-2.44v0l5.807-10.634 10.239-0.482-9.069 15.794 5.292 15.669-10.239 0.481-3.273-11.059c-0.116-0.328-0.188-0.809-0.218-1.441zM57.678 21.981l-0.293 2.267-21.283-1.252zM58.923 12.262l-0.294 2.266-21.282-1.252zM59.547 7.427l-0.294 2.267-21.282-1.252zM60.171 2.593l-0.294 2.266-21.282-1.252zM60.744-2.239l-0.244 2.264-21.282-1.252zM58.3 17.097l-0.294 2.266-21.282-1.252zM61.368-7.074l-0.294 2.266-21.232-1.254zM103.791-11.484l14.344-4.389c5.451-1.668 8.922-0.063 10.414 4.814v0c0.614 2.008 0.897 4.013 0.847 6.015v0c-0.062 3.784-1.113 6.615-3.153 8.494v0l6.199 8.98-9.993 3.057-4.92-8.22-1.96 0.6 1.191 9.361-9.085 2.78zM114.607 0.109l2.103-0.644c1.084-0.332 1.869-0.704 2.356-1.118 0.482-0.406 0.655-1.208 0.519-2.407-0.141-1.191-0.251-1.914-0.329-2.169v0c-0.195-0.637-0.565-0.97-1.111-0.999-0.55-0.02-1.383 0.141-2.498 0.483v0l-1.817 0.555zM105.921 18.034l0.276 2.269-20.93 4.051zM104.723 8.309l0.276 2.269-20.93 4.051zM103.492-1.353l0.276 2.268-20.883 4.037zM102.901-6.192l0.276 2.269-20.883 4.036zM105.315 13.148l0.276 2.269-20.931 4.051zM102.309-11.031l0.276 2.269-20.883 4.037zM104.084 3.485l0.276 2.269-20.883 4.037z" opacity="1" transform="matrix(1,0,0,1,0,0)" fill="#ff908b" class="wordmark-text-0" data-fill-palette-color="primary" id="text-0"></path></svg></g></svg></g></svg></g></svg></g><g transform="matrix(1,0,0,1,151.32078082135433,0)"><svg viewBox="0 0 92.8784383572913 117.21567545805345" height="117.21567545805345" width="92.8784383572913"><g><svg xmlns="http://www.w3.org/2000/svg" xmlns:xlink="http://www.w3.org/1999/xlink" version="1.1" x="0" y="0" viewBox="-250.70000000000002 140.98709328582086 63.39999999999998 80.01290671417914" enable-background="new -269 131 100 100" xml:space="preserve" height="117.21567545805345" width="92.8784383572913" class="icon-icon-0" data-fill-palette-color="accent" id="icon-0"><path d="M-200.1 163.7l-1-0.8c-1.2-1-3.1-0.6-3.8 0.8-0.3 0.7-0.6 7.7-0.6 8.9 0 0.2 0 0.6 0 0.7 0 1-0.9 1.8-1.9 1.6-0.8-0.1-1.4-0.9-1.4-1.7-0.1-12-3.7-20.4-10.5-26.7-4.1-3.8-9-7.2-10.5-4.6-0.4 0.7 0.2 2.2 0.9 4.1 1.4 4.3-2.9 11.2-9 18.1-5.7 6.5-12.8 14.5-12.8 26.4 0 16 15.1 30.5 31.7 30.5 16.6 0 31.7-14.5 31.7-30.5C-187.3 180.4-192.1 170.4-200.1 163.7zM-219 215.2c-7.2 0-13.1-5.9-13.1-13.1 0-3.6 1.4-6.8 3.8-9.2l7.2-8.6c1.1-1.3 3.2-1.3 4.3 0l7.2 8.6c2.3 2.4 3.8 5.6 3.8 9.2C-205.9 209.3-211.8 215.2-219 215.2z" fill="#8d021f" data-fill-palette-color="accent"></path></svg></g></svg></g><g></g></svg></g><defs></defs></svg><rect width="395.52" height="241.1555268779161" fill="none" stroke="none" visibility="hidden"></rect></g></svg></g></svg>